<?xml version="1.0" encoding="UTF-8"?>
<svg width="1440" height="900" viewBox="0 0 1440 900" fill="none" xmlns="http://www.w3.org/2000/svg">
  <!-- Background -->
  <rect width="1440" height="900" fill="#FFFFFF"/>
  
  <!-- Header -->
  <rect width="1440" height="64" fill="#FFFFFF"/>
  <rect x="0" y="63" width="1440" height="1" fill="#E0E0E0"/>
  
  <!-- Menu Icon -->
  <rect x="20" y="20" width="24" height="2" fill="#5F6368"/>
  <rect x="20" y="29" width="24" height="2" fill="#5F6368"/>
  <rect x="20" y="38" width="24" height="2" fill="#5F6368"/>
  
  <!-- Google Keep Logo -->
  <circle cx="68" cy="32" r="12" fill="#FBBC04"/>
  <text x="104" y="38" font-family="Arial, sans-serif" font-size="22" fill="#5F6368">Keep</text>
  
  <!-- Search Bar -->
  <rect x="280" y="16" width="600" height="32" rx="16" fill="#F1F3F4"/>
  <text x="320" y="36" font-family="Arial, sans-serif" font-size="14" fill="#9AA0A6">Search</text>
  
  <!-- Sidebar -->
  <rect x="0" y="64" width="280" height="836" fill="#FFFFFF"/>
  <rect x="279" y="64" width="1" height="836" fill="#E0E0E0"/>
  
  <!-- Sidebar Items -->
  <g>
    <!-- Notes (Active) -->
    <rect x="12" y="84" width="256" height="48" rx="24" fill="#FEEFC3"/>
    <circle cx="36" cy="108" r="10" fill="#F9AB00"/>
    <text x="60" y="112" font-family="Arial, sans-serif" font-size="14" fill="#202124">Notes</text>
  </g>
  
  <!-- Main Content Area -->
  <rect x="280" y="64" width="1160" height="836" fill="#FFFFFF"/>
  
  <!-- Take a note input -->
  <rect x="500" y="120" width="440" height="48" rx="8" fill="#FFFFFF" stroke="#E0E0E0" stroke-width="1"/>
  <circle cx="530" cy="144" r="8" fill="#9AA0A6"/>
  <text x="550" y="148" font-family="Arial, sans-serif" font-size="16" fill="#9AA0A6">Take a note...</text>
  
  <!-- Empty State Illustration -->
  <g transform="translate(620, 300)">
    <!-- Light bulb icon -->
    <circle cx="100" cy="100" r="80" fill="#F8F9FA" stroke="#E8EAED" stroke-width="2"/>
    <path d="M100 40 C120 40, 140 60, 140 80 C140 95, 135 105, 125 115 L125 135 L75 135 L75 115 C65 105, 60 95, 60 80 C60 60, 80 40, 100 40 Z" fill="#9AA0A6"/>
    <rect x="80" y="140" width="40" height="8" rx="4" fill="#9AA0A6"/>
    <rect x="85" y="152" width="30" height="4" rx="2" fill="#9AA0A6"/>
    
    <!-- Light rays -->
    <line x1="100" y1="20" x2="100" y2="30" stroke="#E8EAED" stroke-width="3" stroke-linecap="round"/>
    <line x1="140" y1="40" x2="135" y2="45" stroke="#E8EAED" stroke-width="3" stroke-linecap="round"/>
    <line x1="160" y1="80" x2="150" y2="80" stroke="#E8EAED" stroke-width="3" stroke-linecap="round"/>
    <line x1="140" y1="120" x2="135" y2="115" stroke="#E8EAED" stroke-width="3" stroke-linecap="round"/>
    <line x1="60" y1="40" x2="65" y2="45" stroke="#E8EAED" stroke-width="3" stroke-linecap="round"/>
    <line x1="40" y1="80" x2="50" y2="80" stroke="#E8EAED" stroke-width="3" stroke-linecap="round"/>
    <line x1="60" y1="120" x2="65" y2="115" stroke="#E8EAED" stroke-width="3" stroke-linecap="round"/>
  </g>
  
  <!-- Empty State Text -->
  <text x="720" y="520" font-family="Arial, sans-serif" font-size="22" fill="#5F6368" text-anchor="middle">Notes you add appear here</text>
</svg>